<svg width="24" height="25" viewBox="0 0 24 25" fill="none" xmlns="http://www.w3.org/2000/svg">
<path d="M10.4722 5.8398C10.8673 5.78138 11.2749 5.75005 11.6947 5.75005C16.6579 5.75005 19.9148 10.1298 21.0089 11.8622C21.1413 12.0719 21.2075 12.1768 21.2446 12.3385C21.2724 12.4599 21.2724 12.6515 21.2446 12.773C21.2075 12.9347 21.1408 13.0402 21.0074 13.2513C20.7159 13.7127 20.2715 14.3611 19.6826 15.0644M6.5652 7.41744C4.46319 8.84337 3.03616 10.8244 2.38152 11.8607C2.2485 12.0713 2.18199 12.1766 2.14492 12.3383C2.11707 12.4597 2.11706 12.6513 2.14489 12.7728C2.18195 12.9345 2.24816 13.0393 2.38058 13.249C3.47472 14.9815 6.73154 19.3612 11.6947 19.3612C13.696 19.3612 15.4198 18.6491 16.8362 17.6856M2.94474 3.8056L20.4447 21.3056M9.63235 10.4932C9.10453 11.021 8.77807 11.7502 8.77807 12.5556C8.77807 14.1664 10.0839 15.4723 11.6947 15.4723C12.5002 15.4723 13.2293 15.1458 13.7571 14.618" stroke="#9A9A9A" stroke-width="1.94444" stroke-linecap="round" stroke-linejoin="round"/>
</svg>
