<svg width="24" height="32" viewBox="0 0 24 32" fill="none" xmlns="http://www.w3.org/2000/svg">
<path fill-rule="evenodd" clip-rule="evenodd" d="M1.45002 8.15647C2.36229 4.64222 2.81767 2.8851 3.99658 1.72417C4.33768 1.38785 4.71788 1.09364 5.12905 0.847854C6.54913 0 8.36467 0 11.9943 0C15.6239 0 17.4379 0 18.858 0.847854C19.2697 1.09354 19.6504 1.38775 19.992 1.72417C21.1694 2.8851 21.6247 4.64222 22.537 8.15647L22.6628 8.64182C23.9032 13.4189 24.5233 15.8066 23.3968 17.4844C23.2844 17.6518 23.1608 17.8114 23.0268 17.9622C22.5999 18.4446 22.0562 18.7726 21.3551 18.9958C20.4623 19.2145 19.4886 19.3403 19.1126 19.3763C17.8409 19.4737 16.2605 19.4737 14.2847 19.4737H9.70236C4.76803 19.4737 2.30087 19.4737 0.960182 17.9607C0.825365 17.8109 0.702032 17.6521 0.590183 17.4844C-0.536294 15.8066 0.0838675 13.4189 1.32419 8.64182L1.45002 8.15647Z" fill="#3A5AFF"/>
<path opacity="0.5" d="M19.1124 19.3763L19.1079 19.4737V22.4696C19.1079 22.7676 19.2263 23.0533 19.437 23.264C19.6477 23.4747 19.9334 23.5931 20.2314 23.5931C20.5294 23.5931 20.8151 23.4747 21.0258 23.264C21.2365 23.0533 21.3549 22.7676 21.3549 22.4696V18.9973C20.4621 19.2145 19.4884 19.3418 19.1124 19.3763Z" fill="#3A5AFF"/>
<path opacity="0.5" fill-rule="evenodd" clip-rule="evenodd" d="M10.8691 28.836V19.4736H13.1161V28.836H10.8691Z" fill="#3A5AFF"/>
<path d="M10.8689 28.8361H7.49848C7.20052 28.8361 6.91475 28.9544 6.70406 29.1651C6.49337 29.3758 6.375 29.6616 6.375 29.9595C6.375 30.2575 6.49337 30.5433 6.70406 30.754C6.91475 30.9647 7.20052 31.083 7.49848 31.083H16.4863C16.7843 31.083 17.0701 30.9647 17.2807 30.754C17.4914 30.5433 17.6098 30.2575 17.6098 29.9595C17.6098 29.6616 17.4914 29.3758 17.2807 29.1651C17.0701 28.9544 16.7843 28.8361 16.4863 28.8361H10.8689Z" fill="#3A5AFF"/>
</svg>
